Sox stands for Sound eXchange and self referentially it is "the Swiss Army knife of sound processing programs". I'm interested in learning about how audio and signals are processed, and it appears that Sox is a good place to start!

<pre>
$ sox superegoremix_all.mp3 -c 1 -C 1 -r 22050 superegoremix_all.ogg
</pre>

<pre>
$ soxi superegoremix_all.ogg

Input File     : 'superegoremix_all.ogg'
Channels       : 1
Sample Rate    : 22050
Precision      : 16-bit
Duration       : 00:01:38.66 = 2175552 samples ~ 7399.84 CDDA sectors
File Size      : 405k
Bit Rate       : 32.8k
Sample Encoding: Vorbis
Comment        : 'Artist=Albert Lash'
</pre>